<mxfile host="app.diagrams.net" modified="2022-12-12T02:10:00.912Z" agent="5.0 (Windows NT 10.0; Win64; x64) AppleWebKit/537.36 (KHTML, like Gecko) Chrome/108.0.0.0 Safari/537.36 Edg/108.0.1462.46" etag="_t2NuCrU0sc6VtzRBpSF" version="20.6.2" type="github">
  <diagram id="sEY8LM3g8hp0JsF91ae_" name="第 1 页">
    <mxGraphModel dx="1162" dy="634" grid="1" gridSize="10" guides="1" tooltips="1" connect="1" arrows="1" fold="1" page="1" pageScale="1" pageWidth="827" pageHeight="1169" math="0" shadow="0">
      <root>
        <mxCell id="0" />
        <mxCell id="1" parent="0" />
        <mxCell id="OFpMoE4lfulSsBwSrzdV-34" style="edgeStyle=orthogonalEdgeStyle;rounded=0;orthogonalLoop=1;jettySize=auto;html=1;entryX=0.5;entryY=0;entryDx=0;entryDy=0;" parent="1" source="OFpMoE4lfulSsBwSrzdV-5" target="OFpMoE4lfulSsBwSrzdV-17" edge="1">
          <mxGeometry relative="1" as="geometry">
            <Array as="points">
              <mxPoint x="435" y="80" />
              <mxPoint x="205" y="80" />
            </Array>
          </mxGeometry>
        </mxCell>
        <mxCell id="OFpMoE4lfulSsBwSrzdV-35" style="edgeStyle=orthogonalEdgeStyle;rounded=0;orthogonalLoop=1;jettySize=auto;html=1;entryX=0.5;entryY=0;entryDx=0;entryDy=0;" parent="1" source="OFpMoE4lfulSsBwSrzdV-5" target="OFpMoE4lfulSsBwSrzdV-19" edge="1">
          <mxGeometry relative="1" as="geometry" />
        </mxCell>
        <mxCell id="OFpMoE4lfulSsBwSrzdV-37" style="edgeStyle=orthogonalEdgeStyle;rounded=0;orthogonalLoop=1;jettySize=auto;html=1;entryX=0.5;entryY=0;entryDx=0;entryDy=0;" parent="1" source="OFpMoE4lfulSsBwSrzdV-5" target="OFpMoE4lfulSsBwSrzdV-21" edge="1">
          <mxGeometry relative="1" as="geometry">
            <Array as="points">
              <mxPoint x="435" y="80" />
              <mxPoint x="732" y="80" />
            </Array>
          </mxGeometry>
        </mxCell>
        <mxCell id="OFpMoE4lfulSsBwSrzdV-5" value="中华鲈鱼生理生化采样" style="rounded=1;whiteSpace=wrap;html=1;fontSize=22;" parent="1" vertex="1">
          <mxGeometry x="280" y="10" width="309" height="50" as="geometry" />
        </mxCell>
        <mxCell id="OFpMoE4lfulSsBwSrzdV-16" style="edgeStyle=orthogonalEdgeStyle;rounded=0;orthogonalLoop=1;jettySize=auto;html=1;entryX=0.5;entryY=0;entryDx=0;entryDy=0;fontSize=20;" parent="1" source="OFpMoE4lfulSsBwSrzdV-17" target="OFpMoE4lfulSsBwSrzdV-23" edge="1">
          <mxGeometry relative="1" as="geometry" />
        </mxCell>
        <mxCell id="OFpMoE4lfulSsBwSrzdV-17" value="肠道组织" style="rounded=1;whiteSpace=wrap;html=1;fontSize=20;align=center;" parent="1" vertex="1">
          <mxGeometry x="160" y="110" width="90" height="40" as="geometry" />
        </mxCell>
        <mxCell id="OFpMoE4lfulSsBwSrzdV-18" style="edgeStyle=orthogonalEdgeStyle;rounded=0;orthogonalLoop=1;jettySize=auto;html=1;fontSize=20;" parent="1" source="OFpMoE4lfulSsBwSrzdV-19" target="OFpMoE4lfulSsBwSrzdV-25" edge="1">
          <mxGeometry relative="1" as="geometry" />
        </mxCell>
        <mxCell id="OFpMoE4lfulSsBwSrzdV-19" value="肝组织" style="rounded=1;whiteSpace=wrap;html=1;fontSize=20;align=center;" parent="1" vertex="1">
          <mxGeometry x="389.5" y="110" width="90" height="40" as="geometry" />
        </mxCell>
        <mxCell id="OFpMoE4lfulSsBwSrzdV-20" style="edgeStyle=orthogonalEdgeStyle;rounded=0;orthogonalLoop=1;jettySize=auto;html=1;fontSize=20;" parent="1" source="OFpMoE4lfulSsBwSrzdV-21" target="OFpMoE4lfulSsBwSrzdV-27" edge="1">
          <mxGeometry relative="1" as="geometry" />
        </mxCell>
        <mxCell id="OFpMoE4lfulSsBwSrzdV-21" value="血清" style="rounded=1;whiteSpace=wrap;html=1;fontSize=20;align=center;" parent="1" vertex="1">
          <mxGeometry x="691.75" y="110" width="80" height="40" as="geometry" />
        </mxCell>
        <mxCell id="OFpMoE4lfulSsBwSrzdV-23" value="溶菌酶（LZM）&lt;br&gt;胰蛋白酶（TPS）&lt;br&gt;脂肪酶（LPS）&lt;br&gt;淀粉酶（AMS）" style="rounded=1;whiteSpace=wrap;html=1;fontSize=20;align=center;arcSize=25;" parent="1" vertex="1">
          <mxGeometry x="120" y="240" width="170" height="130" as="geometry" />
        </mxCell>
        <mxCell id="OFpMoE4lfulSsBwSrzdV-25" value="超氧化物歧化酶（SOD）&lt;br&gt;丙二醛（MDA）&lt;br&gt;过氧化物酶（CAT）&lt;br&gt;总抗氧化能力（T-AOC）&lt;br&gt;补体蛋白3（C3）" style="rounded=1;whiteSpace=wrap;html=1;fontSize=20;align=center;" parent="1" vertex="1">
          <mxGeometry x="310" y="240" width="250" height="130" as="geometry" />
        </mxCell>
        <mxCell id="OFpMoE4lfulSsBwSrzdV-27" value="髓过氧化物酶（MPO）&lt;br&gt;高密度脂蛋白胆固醇（HDL-C）&lt;br&gt;低密度脂蛋白胆固醇（LDL-C）&lt;br&gt;皮质醇（Cortisol）&lt;br&gt;5-羟色胺（5-HT）" style="rounded=1;whiteSpace=wrap;html=1;fontSize=20;align=center;" parent="1" vertex="1">
          <mxGeometry x="589" y="240" width="285.5" height="130" as="geometry" />
        </mxCell>
      </root>
    </mxGraphModel>
  </diagram>
</mxfile>
